<svg width="402" height="375" viewBox="0 0 402 375" fill="none" xmlns="http://www.w3.org/2000/svg">
<path d="M92.8626 140.507C104.329 171.628 98.2896 202.505 79.3742 209.475C60.4588 216.444 34.466 204.62 23 173.5C11.534 142.38 17.5846 107.469 36.5 100.5C55.4154 93.5308 81.3966 109.387 92.8626 140.507Z" fill="white"/>
<path d="M386.906 163.728C378.323 195.764 355.579 217.504 336.108 212.287C316.636 207.069 302.223 182.419 310.806 150.383C319.39 118.348 344.469 93.3198 363.941 98.5372C383.412 103.755 395.49 131.693 386.906 163.728Z" fill="white"/>
<ellipse cx="144.754" cy="72.393" rx="46.37" ry="70.9028" transform="rotate(-0.668672 144.754 72.393)" fill="white"/>
<ellipse rx="46.37" ry="70.9028" transform="matrix(-0.999932 -0.0116703 -0.0116703 0.999932 261.194 72.393)" fill="white"/>
<path fill-rule="evenodd" clip-rule="evenodd" d="M142 180.5C160.833 160.333 212 132.1 266 180.5V153.5C270.333 151.333 281.2 148.3 290 153.5V202.5C296.333 209 314.4 230.6 336 265C338.167 270.333 339.7 282.1 328.5 286.5C325 286.167 318 288 318 298V330.5C317.5 342.167 307.6 367.2 272 374C261.333 374.333 239.4 369.3 237 346.5C239 334.5 236 310.5 208 310.5C195.667 308.667 171 313.3 171 346.5C169.5 355.667 161.6 374 142 374C124.667 374.167 90 365.7 90 330.5V298C90.6667 294.167 89.5 286.5 79.5 286.5C74.5 285 66.1 278.6 72.5 265C82 248.833 109.2 209.3 142 180.5ZM192 211C186.477 211 182 215.477 182 221V252C182 257.523 186.477 262 192 262H215C220.523 262 225 257.523 225 252V221C225 215.477 220.523 211 215 211H192Z" fill="white"/>
</svg>
